<?xml version="1.0" encoding="UTF-8"?>
<svg id="Capa_1" xmlns="http://www.w3.org/2000/svg" version="1.1" viewBox="0 0 288 560">
  <!-- Generator: Adobe Illustrator 29.0.0, SVG Export Plug-In . SVG Version: 2.1.0 Build 186)  -->
  <defs>
    <style>
      .st0 {
        fill: #fff;
      }
    </style>
  </defs>
  <path class="st0" d="M383.62,67.36c19.86,23.51,30.85,54.89,35.36,85.15l.05,260.02c-7.55,75.21-67.79,136.75-143.55,144.45l-257.02.05c-77.21-8.03-141.23-73.05-149.45-149.55l-.05-259.02C-123.67,73.23-63.24,10.99,12.51,4.01l257.03-.05c45.89,3.97,84.93,28.89,114.08,63.41h0ZM357.43,108.58c-19.42-31.35-48.62-53.9-85.94-59.58-81.39,1.39-166.91-5.29-247.98-.99-62.39,3.3-107.14,50.59-110.55,112.45,3.49,77.2-4.52,158.29.05,235.03,3.76,63.21,53.89,114.15,117.45,117.55,76.67,4.1,156.98-3.15,234.03-.05,54.88-3.23,96.87-40.33,108.44-93.56,3.3-90.53,3.64-182.19-.18-272.69-2.97-14.35-7.95-26.27-15.32-38.17h0Z"/>
  <path class="st0" d="M233.58,169.42c104.73,87.2,41.03,260.06-98.12,253.62C45.18,418.87-16.19,327.8,7.24,241.74c26.51-97.33,147.45-138.01,226.34-72.32h0ZM222.44,222.59c-55.31-77.76-175.72-36.78-175.44,57.91.15,48.64,35.51,91.72,84.51,97.49,86.3,10.16,140-86.41,90.93-155.4Z"/>
  <path class="st0" d="M320.6,152.6c-22.97,40.44-90.13,7.99-67.43-36.93,22.74-44.98,93.57-9.1,67.43,36.93Z"/>
</svg>