<?xml version="1.0" encoding="UTF-8"?>
<svg id="Capa_1" data-name="Capa 1" xmlns="http://www.w3.org/2000/svg" viewBox="0 0 340.52 178.02">
  <path d="M112.79,8.3c54.93-5.14,56.85,86.69-4.03,78.44-38.81-5.26-40.23-74.3,4.03-78.44ZM129.65,67.65c11.02-10.29,9.01-40.6-8.59-44.2-28.98-5.94-31.23,44.28-9.33,48.32,6.18,1.14,13.21.28,17.92-4.12Z"/>
  <path d="M298.79,8.3c55.96-5.19,56.58,87.76-3.84,78.25-39.41-6.2-39.39-74.24,3.84-78.25ZM299.74,23.24c-22.79,3.65-23.42,53.18,7.68,48.67,22.67-3.29,20.9-53.25-7.68-48.67Z"/>
  <polygon points="31 0 31 74 70 74 70 92 12 92 12 0 31 0"/>
  <path d="M180,174.5c-.73,2.36-7.14,1.35-9.33,1.54-2.64-7.96-5.76-1.65-10.88.25-17.97,6.69-38.11-6.95-39.83-25.75-2.37-25.75,10.87-44.23,38.28-40.28,10.38,1.49,21.24,11.56,19.77,22.74l-12.35-.16c-2.68-.88-2.66-8.9-12.16-9.84-25.94-2.57-24.28,43.32-1.04,42.04,5.77-.32,15.18-5.79,12.13-12.09l-12.16-1.89c-.6-3.13-1.46-7.78,1.06-10.06h25l1.5,1.5v32Z"/>
  <path d="M264,176h-15c-2.25-5.86-.68-18.13-4.95-22.55-4.12-4.26-15.49-1.8-21.05-2.45v25h-15v-65h38.5c1.62,0,7.36,2.81,8.99,4.01,9.8,7.22,9.08,24.26-1.47,30.49,10.77,6.48,5.85,20.56,9.98,30.5ZM223,140h18.5c6.73,0,7.97-17-1-17h-17.5v17Z"/>
  <polygon points="339 111 339 124 306 124 306 137 337 137 337 149 306 149 306 163 340 163 340 176 291 176 291 111 339 111"/>
  <polygon points="241 10 241 25 219 25 219 85 201 85 201 25 179 25 179 10 241 10"/>
  <polygon points="54 111 54 124 35 124 35 176 20 176 20 125.5 18.5 124 0 124 0 111 54 111"/>
  <rect x="78" y="111" width="15" height="65"/>
</svg>