<?xml version="1.0" encoding="UTF-8"?>
<svg id="Capa_1" xmlns="http://www.w3.org/2000/svg" version="1.1" viewBox="0 0 288 560">
  <!-- Generator: Adobe Illustrator 29.0.0, SVG Export Plug-In . SVG Version: 2.1.0 Build 186)  -->
  <defs>
    <style>
      .st0 {
        fill: #fff;
      }
    </style>
  </defs>
  <path class="st0" d="M572,106.31l32.42,6.08c60.6,15.75,108.35,64.56,124.09,124.91l5.49,31.01v28c-1.7,6.86-2.01,14.1-3.47,21.03-22.44,107.09-138.34,165.35-239.52,125.45-7.72-3.04-17.58-10.06-25.5-9.48-26.52,7.5-53.49,14.11-79.52,23h-3c-1.4-1.66-.43-2.84-.04-4.46,6.64-27.2,16.68-53.63,22.55-81.06-7.68-17.07-16.34-33.75-20.2-52.29l-4.31-25.19c.47-8.83-.63-18.25,0-27,6.04-83.44,78.68-154.11,162-160h29ZM537.8,131.61c-93.38,8.23-155.34,113.13-122.57,199.97,4.8,12.73,12.63,23.02,17.79,35.21l-14.82,50.3,1.26,3.11,52.03-14.37c11.81,3.88,21.98,11.14,33.98,15.51,112.75,41.11,227.3-58.83,199.02-176.02-17.83-73.89-92.33-120.25-166.7-113.7Z"/>
  <path class="st0" d="M644.72,320.59c5.96,5.84,2.23,23.24-2.29,29.66-26.46,37.63-94.13,1.64-120.91-19.96-22.22-17.93-57.44-58.81-57.62-88.48-.09-14.85,7.56-35.79,22.54-41.55,4.96-1.91,17.29-2.89,21,1.1,2.53,2.71,11.75,24.99,13.29,29.71,3.92,11.98,4.57,16.66-3.33,27.16-3.04,4.04-9.36,7.16-7.77,12.88,1.81,6.52,16.46,23.21,21.83,28.23,8.91,8.32,29.92,22.46,41.5,25.52,3.11.82,5.07.59,7.54-1.53,5.07-4.35,11.36-14.15,16.55-18.44,1.13-.93,4.04-2.51,5.43-2.5l42.22,18.2Z"/>
</svg>